<svg width="20" height="20" viewBox="0 0 20 20" fill="none" xmlns="http://www.w3.org/2000/svg">
<path d="M17.4085 8.92852H10.7135V2.25752C10.7135 1.69152 10.2075 1.22852 9.6425 1.22852C9.0775 1.22852 8.5715 1.69152 8.5715 2.25752V8.92852H1.9665C1.4005 8.92852 0.9375 9.43452 0.9375 9.99952C0.9375 10.5645 1.4005 11.0705 1.9665 11.0705H8.5715V17.6995C8.5715 18.2655 9.0775 18.7285 9.6425 18.7285C10.2075 18.7285 10.7135 18.2655 10.7135 17.6995V11.0705H17.4085C17.9745 11.0705 18.4375 10.5645 18.4375 9.99952C18.4375 9.43452 17.9745 8.92852 17.4085 8.92852Z" fill="#444444" stroke="black"/>
</svg>
