<svg width="20" height="20" viewBox="0 0 20 20" fill="none" xmlns="http://www.w3.org/2000/svg">
<path fill-rule="evenodd" clip-rule="evenodd" d="M10.0003 16.6667C13.6822 16.6667 16.667 13.6819 16.667 10C16.667 6.31812 13.6822 3.33335 10.0003 3.33335C6.31843 3.33335 3.33366 6.31812 3.33366 10C3.33366 13.6819 6.31843 16.6667 10.0003 16.6667ZM10.0003 18.3334C14.6027 18.3334 18.3337 14.6024 18.3337 10C18.3337 5.39765 14.6027 1.66669 10.0003 1.66669C5.39795 1.66669 1.66699 5.39765 1.66699 10C1.66699 14.6024 5.39795 18.3334 10.0003 18.3334Z" fill="#0F0F0F"/>
<path d="M10.0003 8.33331C10.0003 7.87308 10.3734 7.49998 10.8337 7.49998H11.667C12.1272 7.49998 12.5003 7.12689 12.5003 6.66665C12.5003 6.20641 12.1272 5.83331 11.667 5.83331H10.8337C9.45291 5.83331 8.33366 6.9526 8.33366 8.33331V9.99998H7.50033C7.04009 9.99998 6.66699 10.3731 6.66699 10.8333C6.66699 11.2936 7.04008 11.6666 7.50033 11.6666H8.33366V16.6666C8.33366 17.1269 8.70674 17.5 9.16699 17.5C9.62724 17.5 10.0003 17.1269 10.0003 16.6666V11.6666H11.667C12.1272 11.6666 12.5003 11.2936 12.5003 10.8333C12.5003 10.3731 12.1272 9.99998 11.667 9.99998H10.0003V8.33331Z" fill="#0F0F0F"/>
</svg>
