<svg width="40" height="40" viewBox="0 0 40 40" fill="none" xmlns="http://www.w3.org/2000/svg">
<circle cx="20" cy="20" r="20" fill="#EAEAEA"/>
<path d="M30.5832 17.1984C30.7508 17.0652 31 17.1898 31 17.4004V26.1875C31 27.3262 30.0762 28.25 28.9375 28.25H11.0625C9.92383 28.25 9 27.3262 9 26.1875V17.4047C9 17.1898 9.24492 17.0695 9.4168 17.2027C10.3793 17.9504 11.6555 18.9 16.0383 22.084C16.9449 22.7457 18.4746 24.1379 20 24.1293C21.534 24.1422 23.0937 22.7199 23.966 22.084C28.3488 18.9 29.6207 17.9461 30.5832 17.1984ZM20 22.75C20.9969 22.7672 22.432 21.4953 23.1539 20.9711C28.8559 16.8332 29.2898 16.4723 30.6047 15.441C30.8539 15.2477 31 14.9469 31 14.6289V13.8125C31 12.6738 30.0762 11.75 28.9375 11.75H11.0625C9.92383 11.75 9 12.6738 9 13.8125V14.6289C9 14.9469 9.14609 15.2434 9.39531 15.441C10.7102 16.468 11.1441 16.8332 16.8461 20.9711C17.568 21.4953 19.0031 22.7672 20 22.75Z" fill="black"/>
</svg>
