<svg width="40" height="40" viewBox="0 0 40 40" fill="none" xmlns="http://www.w3.org/2000/svg">
<rect width="40" height="40" fill="#1E1E1E"/>
<g id="Trang ch&#225;&#187;&#167;" clip-path="url(#clip0_1_2)">
<rect width="1440" height="4363" transform="translate(-296 -3835)" fill="white"/>
<g id="Frame 2720">
<g id="Frame 2719">
<g id="Proccess">
<g id="Content">
<g id="Call">
<g id="Icon">
<circle id="Background" cx="20" cy="20" r="20" fill="#EAEAEA"/>
<path id="Icon_2" d="M16.5736 20.0551C17.2907 21.536 18.4883 22.7305 19.9711 23.4439C20.0804 23.4957 20.2014 23.5181 20.3221 23.5089C20.4428 23.4997 20.559 23.4593 20.6593 23.3916L22.8372 21.9368C22.9334 21.8715 23.0446 21.8317 23.1603 21.821C23.2761 21.8104 23.3927 21.8292 23.4992 21.8758L27.5762 23.6268C27.7156 23.6848 27.832 23.787 27.9075 23.9176C27.9831 24.0483 28.0136 24.2002 27.9944 24.3499C27.8652 25.3584 27.3729 26.2854 26.6096 26.9572C25.8464 27.629 24.8645 27.9998 23.8477 28C20.7055 28 17.692 26.7518 15.4701 24.5299C13.2482 22.308 12 19.2945 12 16.1523C12.0002 15.1355 12.371 14.1536 13.0428 13.3904C13.7146 12.6271 14.6416 12.1348 15.6501 12.0056C15.7998 11.9864 15.9517 12.0169 16.0824 12.0925C16.213 12.168 16.3152 12.2844 16.3732 12.4238L18.1242 16.5095C18.1697 16.6143 18.1888 16.7287 18.1797 16.8427C18.1706 16.9566 18.1336 17.0666 18.0719 17.1628L16.6171 19.3756C16.5523 19.4757 16.5143 19.5907 16.5067 19.7096C16.4991 19.8286 16.5221 19.9475 16.5736 20.0551V20.0551Z" stroke="#181818" stroke-width="2" stroke-linecap="round" stroke-linejoin="round"/>
</g>
</g>
</g>
</g>
</g>
</g>
</g>
<defs>
<clipPath id="clip0_1_2">
<rect width="1440" height="4363" fill="white" transform="translate(-296 -3835)"/>
</clipPath>
</defs>
</svg>
