<svg width="15" height="27" viewBox="0 0 15 27" fill="none" xmlns="http://www.w3.org/2000/svg">
<g id="Icon" clip-path="url(#clip0_23580_3265)">
<path id="Vector" d="M6.62941 7.42362L5.06141 10.7416L1.56141 11.2736C1.37474 11.2923 1.21841 11.3856 1.09241 11.5536C0.966406 11.7216 0.90574 11.913 0.910406 12.1276C0.915073 12.3423 0.992073 12.5243 1.14141 12.6736L3.66141 15.2356L3.07341 18.9176C3.03607 19.123 3.07341 19.3073 3.18541 19.4706C3.29741 19.634 3.44907 19.7413 3.64041 19.7926C3.83174 19.844 4.01141 19.823 4.17941 19.7296L7.32941 18.0916L10.4794 19.7296C10.6661 19.823 10.8551 19.844 11.0464 19.7926C11.2377 19.7413 11.3847 19.634 11.4874 19.4706C11.5901 19.3073 11.6227 19.123 11.5854 18.9176L11.0114 15.2356L13.5174 12.6736C13.6667 12.5243 13.7437 12.347 13.7484 12.1416C13.7531 11.9363 13.6947 11.7496 13.5734 11.5816C13.4521 11.4136 13.2981 11.311 13.1114 11.2736L9.61141 10.7416L8.02941 7.42362C7.93607 7.23696 7.79607 7.10862 7.60941 7.03862C7.42274 6.96862 7.23607 6.96862 7.04941 7.03862C6.86274 7.10862 6.72274 7.23696 6.62941 7.42362Z" fill="#FFB800"/>
</g>
<defs>
<clipPath id="clip0_23580_3265">
<rect width="14" height="26.39" fill="white" transform="matrix(1 0 0 -1 0.330078 26.5699)"/>
</clipPath>
</defs>
</svg>
