<svg width="20" height="20" viewBox="0 0 20 20" fill="none" xmlns="http://www.w3.org/2000/svg">
<path fill-rule="evenodd" clip-rule="evenodd" d="M13.3337 3.33335H6.66699C4.82604 3.33335 3.33366 4.82574 3.33366 6.66669V13.3334C3.33366 15.1743 4.82604 16.6667 6.66699 16.6667H13.3337C15.1746 16.6667 16.667 15.1743 16.667 13.3334V6.66669C16.667 4.82574 15.1746 3.33335 13.3337 3.33335ZM6.66699 1.66669C3.90557 1.66669 1.66699 3.90526 1.66699 6.66669V13.3334C1.66699 16.0948 3.90557 18.3334 6.66699 18.3334H13.3337C16.0951 18.3334 18.3337 16.0948 18.3337 13.3334V6.66669C18.3337 3.90526 16.0951 1.66669 13.3337 1.66669H6.66699Z" fill="#0F0F0F"/>
<path d="M14.1663 6.66667C14.6266 6.66667 14.9997 6.29357 14.9997 5.83333C14.9997 5.3731 14.6266 5 14.1663 5C13.7061 5 13.333 5.3731 13.333 5.83333C13.333 6.29357 13.7061 6.66667 14.1663 6.66667Z" fill="#0F0F0F"/>
<path fill-rule="evenodd" clip-rule="evenodd" d="M14.1663 9.99998C14.1663 12.3011 12.3008 14.1666 9.99967 14.1666C7.69849 14.1666 5.83301 12.3011 5.83301 9.99998C5.83301 7.6988 7.69849 5.83331 9.99967 5.83331C12.3008 5.83331 14.1663 7.6988 14.1663 9.99998ZM12.4997 9.99998C12.4997 11.3807 11.3804 12.5 9.99967 12.5C8.61892 12.5 7.49967 11.3807 7.49967 9.99998C7.49967 8.61923 8.61892 7.49998 9.99967 7.49998C11.3804 7.49998 12.4997 8.61923 12.4997 9.99998Z" fill="#0F0F0F"/>
</svg>
