<svg width="75" height="60" viewBox="0 0 75 60" fill="none" xmlns="http://www.w3.org/2000/svg">
<path id="&#226;&#128;&#156;" d="M75 60H43.0556V31.0698C43.0556 26.4186 43.7963 22.4186 45.2778 19.0698C46.7593 15.6589 48.7346 12.7442 51.2037 10.3256C53.7346 7.84496 56.6667 5.79845 60 4.18605C63.3333 2.51163 66.8519 1.11628 70.5556 0L74.9074 9.86047C72.1914 10.8527 69.9074 11.876 68.0556 12.9302C66.2654 13.9225 64.784 15.0698 63.6111 16.3721C62.5 17.6124 61.6975 19.0698 61.2037 20.7442C60.7099 22.3566 60.463 24.2791 60.463 26.5116H75V60ZM32.037 60H0V31.0698C0 26.4186 0.740741 22.4186 2.22222 19.0698C3.7037 15.6589 5.67901 12.7442 8.14815 10.3256C10.679 7.84496 13.6111 5.79845 16.9444 4.18605C20.3395 2.51163 23.8889 1.11628 27.5926 0L31.9444 9.86047C29.2284 10.8527 26.9444 11.876 25.0926 12.9302C23.3025 13.9225 21.821 15.0698 20.6481 16.3721C19.537 17.6124 18.7346 19.0698 18.2407 20.7442C17.7469 22.3566 17.5 24.2791 17.5 26.5116H32.037V60Z" fill="#FFDBCC"/>
</svg>
