<svg width="75" height="59" viewBox="0 0 75 59" fill="none" xmlns="http://www.w3.org/2000/svg">
<path id="&#226;&#128;&#157;" d="M0 0H32.037V28.4481C32.037 32.9607 31.2963 36.8941 29.8148 40.2481C28.3951 43.6021 26.4198 46.4987 23.8889 48.938C21.4198 51.3163 18.5185 53.3287 15.1852 54.9752C11.8519 56.5607 8.30247 57.9023 4.53704 59L0.0925926 49.3039C2.74691 48.3891 5 47.4439 6.85185 46.4682C8.7037 45.4315 10.1852 44.2729 11.2963 42.9922C12.4691 41.7116 13.3025 40.2786 13.7963 38.693C14.2901 37.0465 14.537 35.1256 14.537 32.9302H0V0ZM42.963 0H75V28.4481C75 32.9607 74.2593 36.8941 72.7778 40.2481C71.358 43.6021 69.3827 46.4987 66.8519 48.938C64.3827 51.3163 61.4815 53.3287 58.1481 54.9752C54.8148 56.5607 51.2654 57.9023 47.5 59L43.1481 49.3039C45.8025 48.3891 48.0556 47.4439 49.9074 46.4682C51.7593 45.4315 53.2407 44.2729 54.3519 42.9922C55.5247 41.7116 56.358 40.2786 56.8519 38.693C57.3457 37.0465 57.5926 35.1256 57.5926 32.9302H42.963V0Z" fill="#FFDBCC"/>
</svg>
